<svg width="180" height="30" viewBox="0 0 180 30" fill="none" xmlns="http://www.w3.org/2000/svg">
<g id="Frame 377">
<path id="Vector" d="M13.684 15.1867L14.4341 10.3005H9.74542V7.12969C9.74542 5.79319 10.4002 4.48959 12.5003 4.48959H14.6316V0.329906C14.6316 0.329906 12.6977 0 10.8482 0C6.9872 0 4.46354 2.34056 4.46354 6.57703V10.3013H0.171387V15.1875H4.46354V27H9.74542V15.1875L13.684 15.1867Z" fill="white"/>
<g id="Group">
<path id="Vector_2" d="M99.5687 5.96549C98.5598 6.41258 97.4759 6.71466 96.3365 6.8512C97.5122 6.1477 98.3918 5.04047 98.8111 3.73612C97.7065 4.39223 96.4976 4.85406 95.2369 5.10153C94.3891 4.19633 93.2661 3.59634 92.0424 3.39473C90.8187 3.19312 89.5627 3.40116 88.4693 3.98655C87.3759 4.57194 86.5064 5.50193 85.9957 6.63213C85.4851 7.76234 85.3618 9.02952 85.6451 10.237C83.4069 10.1246 81.2173 9.54282 79.2185 8.52946C77.2197 7.5161 75.4563 6.09377 74.0427 4.35478C73.5594 5.18853 73.2814 6.1552 73.2814 7.1847C73.2809 8.11149 73.5091 9.02408 73.9459 9.8415C74.3826 10.6589 75.0144 11.3559 75.7851 11.8706C74.8913 11.8422 74.0172 11.6007 73.2355 11.1662V11.2387C73.2354 12.5385 73.6851 13.7984 74.5081 14.8044C75.3312 15.8105 76.477 16.5009 77.7511 16.7583C76.9219 16.9827 76.0526 17.0158 75.2087 16.855C75.5682 17.9734 76.2684 18.9515 77.2114 19.6522C78.1543 20.3529 79.2928 20.7412 80.4674 20.7627C78.4735 22.328 76.0109 23.1771 73.476 23.1734C73.027 23.1735 72.5783 23.1473 72.1323 23.0948C74.7054 24.7492 77.7007 25.6273 80.7598 25.6239C91.1152 25.6239 96.7763 17.0471 96.7763 9.60862C96.7763 9.36695 96.7702 9.12287 96.7594 8.8812C97.8605 8.08488 98.811 7.09878 99.5663 5.96912L99.5687 5.96549Z" fill="white"/>
</g>
<g id="Group_2">
<path id="Vector_3" fill-rule="evenodd" clip-rule="evenodd" d="M159.642 1.37675C161.157 1.307 161.64 1.2915 165.5 1.2915C169.359 1.2915 169.842 1.3083 171.356 1.37675C172.87 1.44521 173.903 1.68675 174.808 2.0368C175.754 2.39459 176.613 2.95388 177.324 3.67721C178.047 4.38634 178.605 5.244 178.962 6.19209C179.313 7.09625 179.553 8.12959 179.623 9.64084C179.693 11.1585 179.708 11.6416 179.708 15.4998C179.708 19.3593 179.691 19.8424 179.623 21.3575C179.554 22.8688 179.313 23.9021 178.962 24.8063C178.605 25.7545 178.046 26.6136 177.324 27.3237C176.613 28.0471 175.754 28.6051 174.808 28.9616C173.903 29.3129 172.87 29.5532 171.359 29.6229C169.842 29.6927 169.359 29.7082 165.5 29.7082C161.64 29.7082 161.157 29.6914 159.642 29.6229C158.131 29.5545 157.098 29.3129 156.193 28.9616C155.245 28.605 154.386 28.0461 153.676 27.3237C152.953 26.6142 152.394 25.7555 152.037 24.8076C151.687 23.9034 151.447 22.8701 151.377 21.3588C151.307 19.8411 151.292 19.358 151.292 15.4998C151.292 11.6403 151.308 11.1573 151.377 9.64342C151.445 8.12959 151.687 7.09625 152.037 6.19209C152.394 5.24411 152.954 4.38545 153.677 3.67592C154.386 2.95323 155.245 2.39387 156.192 2.0368C157.096 1.68675 158.13 1.4465 159.641 1.37675H159.642ZM171.241 3.93425C169.743 3.8658 169.293 3.85159 165.5 3.85159C161.706 3.85159 161.257 3.8658 159.758 3.93425C158.372 3.99755 157.621 4.22875 157.12 4.4238C156.457 4.68213 155.983 4.98825 155.486 5.48555C155.014 5.94415 154.651 6.50245 154.424 7.1195C154.229 7.62067 153.998 8.37242 153.934 9.75838C153.866 11.2567 153.852 11.7062 153.852 15.4998C153.852 19.2935 153.866 19.743 153.934 21.2413C153.998 22.6273 154.229 23.379 154.424 23.8802C154.651 24.4963 155.014 25.0556 155.486 25.5141C155.944 25.9856 156.503 26.3485 157.12 26.5759C157.621 26.7709 158.372 27.0021 159.758 27.0654C161.257 27.1339 161.705 27.1481 165.5 27.1481C169.295 27.1481 169.743 27.1339 171.241 27.0654C172.627 27.0021 173.379 26.7709 173.88 26.5759C174.543 26.3175 175.017 26.0114 175.514 25.5141C175.986 25.0556 176.349 24.4963 176.576 23.8802C176.771 23.379 177.002 22.6273 177.065 21.2413C177.134 19.743 177.148 19.2935 177.148 15.4998C177.148 11.7062 177.134 11.2567 177.065 9.75838C177.002 8.37242 176.771 7.62067 176.576 7.1195C176.318 6.45688 176.011 5.98284 175.514 5.48555C175.055 5.01418 174.497 4.6514 173.88 4.4238C173.379 4.22875 172.627 3.99755 171.241 3.93425ZM163.685 19.8799C164.699 20.3018 165.827 20.3587 166.878 20.041C167.929 19.7232 168.837 19.0505 169.447 18.1377C170.057 17.2249 170.331 16.1287 170.222 15.0363C170.114 13.9438 169.629 12.9229 168.852 12.148C168.356 11.6526 167.757 11.2733 167.097 11.0373C166.437 10.8014 165.733 10.7147 165.035 10.7835C164.338 10.8523 163.665 11.0748 163.064 11.4351C162.462 11.7954 161.949 12.2845 161.559 12.8672C161.17 13.4499 160.915 14.1117 160.812 14.8049C160.709 15.4981 160.761 16.2055 160.964 16.8761C161.167 17.5468 161.517 18.164 161.987 18.6834C162.458 19.2028 163.038 19.6114 163.685 19.8799ZM160.336 10.3358C161.014 9.6576 161.819 9.11965 162.705 8.75264C163.591 8.38562 164.541 8.19672 165.5 8.19672C166.459 8.19672 167.409 8.38562 168.295 8.75264C169.181 9.11965 169.986 9.6576 170.664 10.3358C171.342 11.0139 171.88 11.819 172.247 12.7051C172.614 13.5911 172.803 14.5408 172.803 15.4998C172.803 16.4589 172.614 17.4086 172.247 18.2946C171.88 19.1807 171.342 19.9858 170.664 20.6639C169.294 22.0335 167.437 22.803 165.5 22.803C163.563 22.803 161.705 22.0335 160.336 20.6639C158.966 19.2943 158.197 17.4367 158.197 15.4998C158.197 13.5629 158.966 11.7054 160.336 10.3358ZM174.423 9.28434C174.591 9.12581 174.725 8.93517 174.818 8.72372C174.911 8.51226 174.961 8.28429 174.964 8.05329C174.968 7.82229 174.925 7.59296 174.838 7.37888C174.751 7.16481 174.622 6.97033 174.459 6.80697C174.295 6.64361 174.101 6.51469 173.887 6.42784C173.673 6.34099 173.443 6.29797 173.212 6.30134C172.981 6.30471 172.753 6.35439 172.542 6.44744C172.331 6.5405 172.14 6.67503 171.981 6.84309C171.673 7.16992 171.504 7.60403 171.511 8.05329C171.517 8.50254 171.699 8.93155 172.016 9.24926C172.334 9.56696 172.763 9.74834 173.212 9.75489C173.662 9.76144 174.096 9.59264 174.423 9.28434Z" fill="white"/>
</g>
</g>
</svg>
