<svg width="159" height="19" viewBox="0 0 159 19" fill="none" xmlns="http://www.w3.org/2000/svg">
<g id="Group 7">
<g id="Instagram">
<path id="Shape" fill-rule="evenodd" clip-rule="evenodd" d="M58.1883 0C55.6082 0 55.2845 0.0112812 54.2711 0.0573958C53.2598 0.103708 52.5694 0.263823 51.9654 0.49875C51.3406 0.741395 50.8106 1.06598 50.2825 1.59422C49.7541 2.12226 49.4295 2.65228 49.1861 3.2769C48.9505 3.88114 48.7902 4.57167 48.7447 5.58263C48.6994 6.59597 48.6875 6.91995 48.6875 9.49999C48.6875 12.08 48.699 12.4028 48.7449 13.4162C48.7914 14.4275 48.9515 15.1179 49.1862 15.7219C49.4291 16.3467 49.7537 16.8767 50.2819 17.4048C50.8098 17.9332 51.3398 18.2586 51.9642 18.5012C52.5686 18.7362 53.2592 18.8963 54.2703 18.9426C55.2837 18.9887 55.6073 19 58.1871 19C60.7673 19 61.0901 18.9887 62.1035 18.9426C63.1148 18.8963 63.806 18.7362 64.4104 18.5012C65.035 18.2586 65.5642 17.9332 66.0921 17.4048C66.6205 16.8767 66.9451 16.3467 67.1885 15.7221C67.4221 15.1179 67.5824 14.4273 67.6299 13.4164C67.6754 12.403 67.6873 12.08 67.6873 9.49999C67.6873 6.91995 67.6754 6.59616 67.6299 5.58283C67.5824 4.57148 67.4221 3.88114 67.1885 3.2771C66.9451 2.65228 66.6205 2.12226 66.0921 1.59422C65.5636 1.06578 65.0352 0.741198 64.4098 0.49875C63.8042 0.263823 63.1134 0.103708 62.1021 0.0573958C61.0888 0.0112812 60.7662 0 58.1853 0H58.1883ZM57.3362 1.71201C57.5892 1.71162 57.8714 1.71201 58.1885 1.71201C60.725 1.71201 61.0256 1.72112 62.0273 1.76664C62.9535 1.80899 63.4562 1.96376 63.7911 2.0938C64.2344 2.26598 64.5505 2.47182 64.8828 2.80432C65.2153 3.13682 65.4211 3.45348 65.5937 3.89682C65.7237 4.23129 65.8787 4.734 65.9209 5.66025C65.9664 6.66171 65.9763 6.96254 65.9763 9.49785C65.9763 12.0332 65.9664 12.334 65.9209 13.3355C65.8785 14.2617 65.7237 14.7644 65.5937 15.0989C65.4215 15.5422 65.2153 15.8579 64.8828 16.1902C64.5503 16.5227 64.2346 16.7285 63.7911 16.9007C63.4566 17.0313 62.9535 17.1857 62.0273 17.2281C61.0258 17.2736 60.725 17.2835 58.1885 17.2835C55.6518 17.2835 55.3511 17.2736 54.3497 17.2281C53.4234 17.1853 52.9207 17.0306 52.5856 16.9005C52.1423 16.7283 51.8256 16.5225 51.4931 16.19C51.1606 15.8575 50.9548 15.5416 50.7822 15.0981C50.6522 14.7636 50.4972 14.2609 50.4551 13.3347C50.4095 12.3332 50.4004 12.0324 50.4004 9.49548C50.4004 6.95858 50.4095 6.65933 50.4551 5.65788C50.4974 4.73163 50.6522 4.22892 50.7822 3.89404C50.9544 3.45071 51.1606 3.13404 51.4931 2.80154C51.8256 2.46905 52.1423 2.26321 52.5856 2.09063C52.9205 1.96 53.4234 1.80563 54.3497 1.76308C55.226 1.72349 55.5657 1.71162 57.3362 1.70964V1.71201ZM63.2596 3.2895C62.6302 3.2895 62.1196 3.79953 62.1196 4.42911C62.1196 5.05848 62.6302 5.56911 63.2596 5.56911C63.889 5.56911 64.3996 5.05848 64.3996 4.42911C64.3996 3.79973 63.889 3.28911 63.2596 3.28911V3.2895ZM58.1884 4.62127C55.4942 4.62127 53.3098 6.80568 53.3098 9.49992C53.3098 12.1942 55.4942 14.3776 58.1884 14.3776C60.8826 14.3776 63.0663 12.1942 63.0663 9.49992C63.0663 6.80568 60.8824 4.62127 58.1882 4.62127H58.1884ZM58.1882 6.33323C59.937 6.33323 61.3549 7.75091 61.3549 9.4999C61.3549 11.2487 59.937 12.6666 58.1882 12.6666C56.4392 12.6666 55.0216 11.2487 55.0216 9.4999C55.0216 7.75091 56.4392 6.33323 58.1882 6.33323Z" fill="#0F001A"/>
</g>
<g id="Twitter">
<path id="Shape_2" fill-rule="evenodd" clip-rule="evenodd" d="M147.172 5.05429L147.222 5.8761L146.391 5.77547C143.368 5.38972 140.726 4.08155 138.484 1.88448L137.387 0.794336L137.105 1.59937C136.507 3.39392 136.889 5.2891 138.135 6.56373C138.799 7.26813 138.65 7.36876 137.504 6.94947C137.105 6.8153 136.756 6.71467 136.723 6.76499C136.606 6.88239 137.005 8.40859 137.321 9.01237C137.753 9.85094 138.633 10.6727 139.597 11.1591L140.411 11.5449L139.447 11.5616C138.517 11.5616 138.484 11.5784 138.583 11.9306C138.916 13.0208 140.228 14.178 141.69 14.6811L142.72 15.0333L141.823 15.57C140.494 16.3415 138.932 16.7776 137.371 16.8111C136.623 16.8279 136.008 16.895 136.008 16.9453C136.008 17.113 138.035 18.0522 139.215 18.4212C142.753 19.5113 146.956 19.0417 150.113 17.1801C152.355 15.8551 154.598 13.222 155.645 10.6727C156.209 9.31425 156.774 6.83207 156.774 5.6413C156.774 4.86981 156.824 4.76918 157.754 3.84675C158.303 3.31006 158.818 2.72306 158.917 2.55534C159.083 2.23668 159.067 2.23668 158.22 2.5218C156.807 3.02494 156.608 2.95786 157.306 2.20314C157.821 1.66645 158.435 0.693707 158.435 0.408591C158.435 0.358277 158.186 0.442134 157.904 0.593078C157.605 0.760793 156.94 1.01236 156.442 1.16331L155.545 1.44842L154.731 0.894965C154.282 0.593078 153.651 0.257648 153.319 0.157019C152.472 -0.077782 151.176 -0.044239 150.412 0.224105C148.335 0.978822 147.023 2.92431 147.172 5.05429Z" fill="#0F001A"/>
</g>
<g id="Youtube">
<path id="Fill 1" fill-rule="evenodd" clip-rule="evenodd" d="M25.8823 2.96691C25.5783 1.79902 24.6826 0.879362 23.5451 0.567242C21.4838 0 13.2174 0 13.2174 0C13.2174 0 4.95096 0 2.8895 0.567242C1.75205 0.879362 0.856276 1.79902 0.552276 2.96691C0 5.08357 0 9.49999 0 9.49999C0 9.49999 0 13.9163 0.552276 16.0331C0.856276 17.201 1.75205 18.1206 2.8895 18.4329C4.95096 19 13.2174 19 13.2174 19C13.2174 19 21.4838 19 23.5451 18.4329C24.6826 18.1206 25.5783 17.201 25.8823 16.0331C26.4348 13.9163 26.4348 9.49999 26.4348 9.49999C26.4348 9.49999 26.4348 5.08357 25.8823 2.96691Z" fill="#0F001A"/>
<path id="Fill 2" fill-rule="evenodd" clip-rule="evenodd" d="M10.7394 14.0436V5.78271L17.3481 9.91331L10.7394 14.0436Z" fill="white"/>
</g>
<g id="Facebook">
<path id="Shape_3" fill-rule="evenodd" clip-rule="evenodd" d="M103.27 19V9.49888H105.893L106.24 6.22475H103.27L103.275 4.58601C103.275 3.73207 103.356 3.2745 104.582 3.2745H106.222V0H103.599C100.448 0 99.339 1.58831 99.339 4.25934V6.22512H97.375V9.49925H99.339V19H103.27Z" fill="#0F001A"/>
</g>
</g>
</svg>
